<?xml version="1.0" encoding="utf-8"?>
<!-- Generator: Adobe Illustrator 13.0.0, SVG Export Plug-In . SVG Version: 6.00 Build 14948)  -->
<!DOCTYPE svg PUBLIC "-//W3C//DTD SVG 1.1//EN" "http://www.w3.org/Graphics/SVG/1.1/DTD/svg11.dtd">
<svg version="1.1" xmlns="http://www.w3.org/2000/svg" xmlns:xlink="http://www.w3.org/1999/xlink" x="0px" y="0px"
	 width="156.264px" height="155.332px" viewBox="792.25 792.883 156.264 155.332"
	 enable-background="new 792.25 792.883 156.264 155.332" xml:space="preserve">
<g id="印刷">
	<g id="画像">
		<path id="背景" display="none" fill="#724598" d="M948.514,896.699c0-5.726-3.049-10.738-7.599-13.54
			c-0.338-3.127-0.87-7.258-2.77-12.303c-0.586-1.577-1.419-3.049-2.478-4.373c-1.672-2.088-3.821-3.764-6.419-5.011
			c-0.122-0.407-0.251-0.835-0.385-1.283l-0.054-0.187c-0.746-2.506-1.669-5.618-3.077-8.824c-1.743-4.308-3.977-7.963-5.936-11.166
			l-0.113-0.187c-0.829-1.359-1.569-2.579-2.226-3.754c-0.454-0.813-0.967-1.571-1.504-2.232c-0.771-0.957-1.604-1.879-2.482-2.759
			c0.579-4.632,0.356-9.404-0.668-15.544c-0.348-2.124-1.11-4.122-2.261-5.931c-5.702-8.997-13.352-12.59-20.151-14.946
			c-2.639-0.877-5.821-1.776-9.436-1.776c-7.719,0-12.291,4.028-14.32,6.415c-0.917,1.075-1.689,2.279-2.302,3.585
			c-3.513,7.54-2.619,13.471-0.958,17.788c-10.865,5.198-17.557,10.262-25.248,16.079l-0.541,0.407
			c-0.032,0.023-0.065,0.049-0.098,0.075l-0.326,0.255c-11.452,9.276-18.792,16.798-22.43,22.986
			c-3.338,5.5-5.626,12.605-6.276,19.51l-0.098,0.807h-0.204c-8.773,0-15.908,7.136-15.908,15.909
			c0,7.618,5.388,13.995,12.553,15.541c1.083,0.234,1.261,35.975,2.413,35.975c0,0,134.007-1.212,135.062-2.433
			c2.092-2.419-0.363-34.453,0.479-36.851c0.156-0.13,0.302-0.273,0.452-0.408C946.456,905.608,948.514,901.395,948.514,896.699z"/>
		<path fill="#724598" stroke="#724598" d="M936.074,905.235c1.97-2.633,4.697-1.277,4.791-8.209
			c0.099-7.285-3.599-5.492-6.086-8.847c-1.526-2.06-1.194-2.138-1.306-3.193c-0.318-2.985-3.292-13.117-3.918-13.9
			c-1.49-1.862-3.959-2.019-6.101-4.025c-0.993-0.929-3.338-9.761-4.601-12.611c-1.518-3.78-8.423-15.221-8.747-15.618
			c-1.271-1.579-3.642-2.373-4.33-4.32c-1.526-4.326,1.712-15.478-1.427-20.222c-4.727-7.146-15.98-13.566-23.91-13.607
			c-5.094-0.026-9.525,3.994-10.716,6.251c-3.452,6.542-1.717,10.524-0.021,14.284c0.484,1.075,0.997,1.684,0.416,3.468
			c-0.387,1.184-1.898,1.718-2.295,1.901c-11.392,5.213-26.667,16.789-26.667,16.789c-10.596,8.592-17.573,15.699-20.715,21.075
			c-2.842,4.674-4.788,10.794-5.337,16.708c0,0-0.021,4.965-1.221,6.05c-1.078,0.976-5.323,0.385-5.323,0.385
			c-5.198,0-9.426,4.233-9.426,9.434c0,5.204,4.228,9.438,9.426,9.438c0,0,10.458,0.533,12.239,4.187
			c1.456,2.982-0.311,4.092-1.973,5.514c-0.74,0.632-1.801,0.797-3.602,1.77c-1.7,0.915-2.66,2.072-2.979,2.911
			c-0.762,2.014-0.571,5.041-0.554,4.187l-0.164,9.521c0,4.325,3.534,7.862,7.854,7.862h108.419c4.318,0,7.854-3.537,7.854-7.862
			l0.024-23.486C934.71,908.708,935.599,905.87,936.074,905.235z"/>
		
			<path id="地面" fill="none" stroke="#FFFFFF" stroke-width="2" stroke-linecap="round" stroke-linejoin="round" stroke-miterlimit="10" d="
			M808.157,896.699h124.449"/>
		<path id="いぬ本体" fill="#FFFFFF" stroke="#FFFFFF" d="M867.153,896.695l-0.294-2.202c4.073-1.726,6.455-4.509,7.784-8.666
			l2.201,3.378c0.659,0.647,3.428,2.352,5.14,3.525c-0.439,1.323-1.409,2.642-1.32,3.965l15.418,0.292
			c0.44-1.076,1.094-1.836,1.321-3.229c0.17-0.993-0.293-1.567-0.44-2.349c0.34-2.97,1.103-5.093-0.881-7.639
			c-1.404-1.439-3.232-0.979-4.847-1.47c-0.612-3.333-1.859-5.188-2.79-7.782c0.54-1.909,2.136-3.395,1.617-5.728l-2.202-4.7
			c3.913,5.483,5.719,11.389,11.746,16.446c2.408,1.816,5.98,1.84,8.812,3.233c2.869,1.348,4.895,2.801,7.342,4.993
			c1.278,1.126,1.289,1.935,1.616,3.38c0.275,2.99,0.446,4.502-0.441,6.756c-1.62,1.165-1.762,2.545-2.644,3.815
			c-0.663,2.023-0.483,3.941,1.176,5.436c3.671,0.165,7.343-0.089,11.014-2.35c1.375-1.593,1.695-3.078,1.909-5.73
			c-0.461-3.635-1.867-5.795-2.645-10.277c-0.831-4.455-0.501-8.065-2.495-13.367c-0.6-0.748-2.68-1.392-5.286-1.615
			c-3.675-4.874-4.18-11.439-6.901-17.476c-1.865-4.715-4.995-9.007-7.491-13.512c-2.751-3.413-6.241-5.348-9.838-6.755
			c0.93-0.881,1.965-0.706,2.789-2.645c1.519-5.287,1.86-8.664,0.588-16.301c-2.889-4.553-6.656-6.609-11.748-8.372
			c-2.35-0.783-5.351-1.625-6.608-0.146c-2.055,4.407-0.294,5.434,0.881,8.372c1.614,2.105,3.821,3.623,4.847,6.315
			c0.344,3.23,0.544,5.582-0.293,8.371c0.11,0.242-0.195-0.832-2.204-0.586c-2.116-0.477-5.972,0.93-9.837,2.055
			c-10.82,4.944-16.644,9.42-24.965,15.715c-7.217,5.843-15.7,13.481-18.796,18.797c-2.216,3.617-3.692,8.399-4.112,13.072
			c-0.946,7.948-1.363,11.038-0.724,14.867L867.153,896.695z"/>
	</g>
	<g id="テキスト" enable-background="new    ">
		<path fill="#FFFFFF" d="M832.453,913.336h4.267v13.427c0,1.756-0.153,3.106-0.462,4.052c-0.416,1.234-1.168,2.227-2.258,2.974
			s-2.526,1.12-4.311,1.12c-2.093,0-3.704-0.587-4.833-1.758c-1.128-1.172-1.698-2.89-1.707-5.158l4.037-0.464
			c0.049,1.216,0.227,2.075,0.535,2.575c0.464,0.763,1.167,1.144,2.112,1.144c0.955,0,1.63-0.272,2.026-0.817
			c0.396-0.544,0.594-1.676,0.594-3.393V913.336z"/>
		<path fill="#FFFFFF" d="M841.263,913.336h7.827c1.766,0,3.111,0.136,4.037,0.405c1.245,0.365,2.31,1.018,3.198,1.954
			c0.887,0.936,1.562,2.08,2.025,3.435c0.463,1.355,0.694,3.026,0.694,5.014c0,1.746-0.217,3.25-0.651,4.515
			c-0.53,1.544-1.287,2.792-2.271,3.746c-0.743,0.725-1.746,1.289-3.009,1.694c-0.945,0.3-2.209,0.448-3.791,0.448h-8.059V913.336z
			 M845.547,916.925v14.048h3.197c1.195,0,2.06-0.067,2.589-0.203c0.695-0.173,1.271-0.468,1.729-0.882
			c0.458-0.414,0.833-1.097,1.121-2.047c0.29-0.949,0.435-2.244,0.435-3.885s-0.145-2.898-0.435-3.776
			c-0.289-0.878-0.694-1.563-1.215-2.054c-0.521-0.494-1.182-0.827-1.982-0.999c-0.598-0.135-1.77-0.202-3.516-0.202H845.547z"/>
		<path fill="#FFFFFF" d="M862.662,913.336h7.828c1.766,0,3.109,0.136,4.035,0.405c1.244,0.365,2.311,1.018,3.198,1.954
			c0.887,0.936,1.563,2.08,2.025,3.435c0.464,1.355,0.694,3.026,0.694,5.014c0,1.746-0.217,3.25-0.65,4.515
			c-0.53,1.544-1.288,2.792-2.272,3.746c-0.742,0.725-1.744,1.289-3.009,1.694c-0.945,0.3-2.21,0.448-3.79,0.448h-8.06V913.336z
			 M866.946,916.925v14.048h3.196c1.196,0,2.061-0.067,2.592-0.203c0.693-0.173,1.27-0.468,1.728-0.882s0.832-1.097,1.122-2.047
			c0.289-0.949,0.433-2.244,0.433-3.885s-0.144-2.898-0.433-3.776c-0.29-0.878-0.695-1.563-1.216-2.054
			c-0.521-0.494-1.183-0.827-1.981-0.999c-0.599-0.135-1.771-0.202-3.517-0.202H866.946z"/>
		<path fill="#FFFFFF" d="M884.046,913.336h4.283v11.487c0,1.823,0.052,3.006,0.158,3.547c0.185,0.866,0.62,1.564,1.31,2.089
			c0.688,0.525,1.632,0.788,2.829,0.788c1.216,0,2.13-0.248,2.75-0.745c0.617-0.495,0.987-1.105,1.113-1.83
			c0.125-0.725,0.188-1.923,0.188-3.602v-11.734h4.281v11.141c0,2.547-0.115,4.345-0.347,5.397c-0.231,1.051-0.658,1.938-1.28,2.661
			s-1.455,1.3-2.496,1.73c-1.041,0.428-2.4,0.643-4.079,0.643c-2.026,0-3.563-0.233-4.609-0.701
			c-1.045-0.468-1.874-1.076-2.481-1.823s-1.006-1.532-1.199-2.352c-0.279-1.216-0.421-3.009-0.421-5.382V913.336z"/>
		<path fill="#FFFFFF" d="M915.342,926.749v-3.574h9.23v8.45c-0.897,0.866-2.196,1.632-3.899,2.291
			c-1.703,0.662-3.427,0.992-5.173,0.992c-2.218,0-4.151-0.465-5.801-1.395c-1.65-0.932-2.89-2.264-3.719-3.994
			c-0.829-1.732-1.244-3.616-1.244-5.651c0-2.208,0.462-4.171,1.389-5.889c0.927-1.717,2.282-3.031,4.065-3.949
			c1.36-0.703,3.054-1.056,5.079-1.056c2.634,0,4.689,0.553,6.17,1.656c1.481,1.104,2.434,2.631,2.858,4.58l-4.254,0.795
			c-0.299-1.042-0.86-1.863-1.687-2.467c-0.825-0.603-1.854-0.903-3.088-0.903c-1.872,0-3.36,0.591-4.465,1.779
			c-1.104,1.186-1.655,2.945-1.655,5.28c0,2.519,0.559,4.406,1.678,5.663c1.119,1.261,2.584,1.889,4.398,1.889
			c0.896,0,1.797-0.174,2.698-0.528c0.901-0.352,1.677-0.777,2.322-1.281v-2.688H915.342z"/>
	</g>
</g>
<g id="カットライン">
</g>
</svg>
