<?xml version="1.0" encoding="iso-8859-1"?>
<!-- Generator: Adobe Illustrator 13.0.0, SVG Export Plug-In . SVG Version: 6.00 Build 14948)  -->
<!DOCTYPE svg PUBLIC "-//W3C//DTD SVG 1.0//EN" "http://www.w3.org/TR/2001/REC-SVG-20010904/DTD/svg10.dtd">
<svg version="1.0" xmlns="http://www.w3.org/2000/svg" xmlns:xlink="http://www.w3.org/1999/xlink" x="0px" y="0px"
	 width="157.264px" height="156.332px" viewBox="791.25 791.883 157.264 156.332"
	 enable-background="new 791.25 791.883 157.264 156.332" xml:space="preserve">
<g id="&#x5370;&#x5237;">
</g>
<g id="&#x30AB;&#x30C3;&#x30C8;&#x30E9;&#x30A4;&#x30F3;">
</g>
<g id="&#x30EC;&#x30A4;&#x30E4;&#x30FC;_4">
</g>
<g id="&#x30EC;&#x30A4;&#x30E4;&#x30FC;_3">
</g>
<g id="&#x30B3;&#x30DE;_xFF14_">
</g>
<g id="&#x30B3;&#x30DE;_xFF12_">
	<g id="&#x80CC;&#x666F;_xFF08_&#x7D2B;_xFF09__1_">
		<path id="&#x80CC;&#x666F;_2_" display="none" fill="#724598" stroke="#E83D18" d="M948.014,896.199
			c0-5.726-3.049-10.738-7.599-13.54c-0.338-3.127-0.87-7.258-2.77-12.303c-0.586-1.577-1.419-3.049-2.478-4.373
			c-1.672-2.088-3.821-3.765-6.419-5.011c-0.122-0.407-0.251-0.836-0.385-1.283l-0.054-0.188c-0.746-2.506-1.669-5.617-3.077-8.823
			c-1.743-4.308-3.977-7.964-5.936-11.166l-0.113-0.187c-0.829-1.359-1.569-2.579-2.226-3.754c-0.454-0.813-0.967-1.571-1.504-2.232
			c-0.771-0.957-1.604-1.879-2.482-2.759c0.579-4.632,0.356-9.404-0.668-15.544c-0.348-2.124-1.11-4.122-2.261-5.932
			c-5.702-8.996-13.352-12.59-20.151-14.946c-2.639-0.878-5.821-1.776-9.436-1.776c-7.719,0-12.291,4.028-14.32,6.416
			c-0.917,1.074-1.689,2.278-2.302,3.584c-3.513,7.54-2.618,13.471-0.958,17.789c-10.865,5.197-17.557,10.262-25.248,16.078
			l-0.541,0.406c-0.031,0.023-0.064,0.049-0.098,0.075l-0.325,0.255c-11.452,9.277-18.792,16.799-22.43,22.986
			c-3.338,5.501-5.626,12.605-6.276,19.511l-0.098,0.807h-0.203c-8.773,0-15.908,7.136-15.908,15.909
			c0,7.618,5.389,13.995,12.553,15.541c1.083,0.234,1.262,35.975,2.412,35.975c0,0,134.008-1.212,135.063-2.433
			c2.092-2.419-0.363-34.453,0.479-36.851c0.156-0.13,0.302-0.273,0.452-0.408C945.956,905.108,948.014,900.895,948.014,896.199z"/>
		<path fill="#724598" d="M936.49,905.052c1.97-2.633,3.647,0.754,3.741-6.178c0.099-7.285-4.661-6.127-8.481-7.813
			c-2.125-0.938-7.563-1.688-10.25-4.938s-2.663-7.54-2.375-8.5c0.75-2.5,8.315-14.482,7.375-19.375c-1.25-6.5-5.5-9.625-12-10.25
			c-5.509-0.529-10.208,6.709-12.667,6.459c-2.476-0.252-3.935-1.928-5.333-5.334c-1.424-3.467-1.208-5.709-0.25-7
			c1.701-2.293,14.962-19.049,16.958-30.5c0.822-4.715-1.615-8.176-5.333-10.125c-5.167-2.709-8.625-1.5-13.125,2.625
			c-4.092,3.751-7.238,8.758-9.625,8.5c-2.156-0.232-10.155-9.17-18.375-10.541c-5-0.834-19.25-4.084-32.5,0.166
			c-0.75,0.75-7.5,3.25-12.5,10c-5.264,7.106-9.5,28.75-2.375,33.375c1.5,1.438,7.037,5.18,6.625,10.125
			c-0.5,6-0.625,17.75-2.75,21.75s-7.75,8.44-8.949,9.525c-1.078,0.976-5.324,0.385-5.324,0.385c-5.197,0-9.426,4.233-9.426,9.434
			c0,5.204,4.229,9.438,9.426,9.438c0,0,10.458,0.533,12.24,4.187c1.455,2.982-0.312,4.092-1.974,5.514
			c-0.739,0.632-1.802,0.797-3.603,1.77c-1.699,0.915-2.66,2.072-2.979,2.911c-0.762,2.014-0.57,5.041-0.554,4.187l-0.164,9.521
			c0,4.325,3.534,7.862,7.854,7.862h108.419c4.318,0,7.854-3.537,7.854-7.862l0.024-23.486
			C935.126,908.525,936.015,905.687,936.49,905.052z"/>
	</g>
	
		<path id="&#x5730;&#x9762;_2_" fill="none" stroke="#FFFFFF" stroke-width="2" stroke-linecap="round" stroke-linejoin="round" stroke-miterlimit="10" d="
		M809.657,898.949h124.449"/>
	<g id="JDDUG_1_" enable-background="new    ">
		<path fill="#FFFFFF" d="M831.953,912.836h4.267v13.427c0,1.756-0.153,3.106-0.462,4.052c-0.416,1.234-1.168,2.227-2.258,2.974
			s-2.526,1.12-4.311,1.12c-2.094,0-3.704-0.587-4.834-1.758c-1.128-1.172-1.697-2.89-1.707-5.158l4.037-0.464
			c0.049,1.216,0.227,2.075,0.535,2.575c0.464,0.763,1.167,1.144,2.112,1.144c0.954,0,1.63-0.272,2.026-0.817
			c0.396-0.544,0.594-1.676,0.594-3.393V912.836z"/>
		<path fill="#FFFFFF" d="M840.764,912.836h7.826c1.766,0,3.111,0.136,4.037,0.405c1.245,0.365,2.311,1.018,3.199,1.954
			c0.887,0.936,1.562,2.08,2.024,3.435c0.464,1.355,0.694,3.026,0.694,5.014c0,1.746-0.217,3.25-0.651,4.515
			c-0.53,1.544-1.286,2.792-2.271,3.746c-0.743,0.725-1.746,1.289-3.01,1.694c-0.945,0.3-2.209,0.448-3.791,0.448h-8.059V912.836z
			 M845.047,916.425v14.048h3.197c1.195,0,2.059-0.067,2.589-0.203c0.694-0.173,1.271-0.468,1.729-0.882
			c0.458-0.414,0.832-1.097,1.121-2.047c0.289-0.949,0.434-2.244,0.434-3.885s-0.145-2.898-0.434-3.776s-0.694-1.563-1.215-2.054
			c-0.521-0.494-1.182-0.827-1.982-0.999c-0.599-0.135-1.77-0.202-3.517-0.202H845.047z"/>
		<path fill="#FFFFFF" d="M862.162,912.836h7.828c1.766,0,3.109,0.136,4.035,0.405c1.244,0.365,2.311,1.018,3.198,1.954
			c0.887,0.936,1.563,2.08,2.025,3.435c0.464,1.355,0.694,3.026,0.694,5.014c0,1.746-0.217,3.25-0.65,4.515
			c-0.53,1.544-1.288,2.792-2.272,3.746c-0.742,0.725-1.744,1.289-3.009,1.694c-0.945,0.3-2.21,0.448-3.79,0.448h-8.06V912.836z
			 M866.446,916.425v14.048h3.196c1.196,0,2.061-0.067,2.592-0.203c0.693-0.173,1.27-0.468,1.728-0.882s0.832-1.097,1.122-2.047
			c0.289-0.949,0.433-2.244,0.433-3.885s-0.144-2.898-0.433-3.776c-0.29-0.878-0.695-1.563-1.216-2.054
			c-0.521-0.494-1.183-0.827-1.981-0.999c-0.599-0.135-1.771-0.202-3.517-0.202H866.446z"/>
		<path fill="#FFFFFF" d="M883.546,912.836h4.283v11.487c0,1.823,0.052,3.006,0.158,3.547c0.185,0.866,0.62,1.564,1.31,2.089
			c0.688,0.525,1.632,0.788,2.829,0.788c1.216,0,2.13-0.248,2.75-0.745c0.617-0.495,0.987-1.105,1.113-1.83
			c0.125-0.725,0.188-1.923,0.188-3.602v-11.734h4.281v11.141c0,2.547-0.115,4.345-0.347,5.397c-0.231,1.051-0.658,1.938-1.28,2.661
			s-1.455,1.3-2.496,1.73c-1.041,0.428-2.4,0.643-4.079,0.643c-2.026,0-3.563-0.233-4.609-0.701
			c-1.045-0.468-1.874-1.076-2.481-1.823s-1.006-1.532-1.199-2.352c-0.279-1.216-0.421-3.009-0.421-5.382V912.836z"/>
		<path fill="#FFFFFF" d="M914.842,926.249v-3.574h9.23v8.45c-0.897,0.866-2.196,1.632-3.899,2.291
			c-1.703,0.662-3.427,0.992-5.173,0.992c-2.218,0-4.151-0.465-5.801-1.395c-1.65-0.932-2.89-2.264-3.719-3.994
			c-0.829-1.732-1.244-3.616-1.244-5.651c0-2.208,0.462-4.171,1.389-5.889c0.927-1.717,2.282-3.031,4.065-3.949
			c1.36-0.703,3.054-1.056,5.079-1.056c2.634,0,4.689,0.553,6.17,1.656c1.481,1.104,2.434,2.631,2.858,4.58l-4.254,0.795
			c-0.299-1.042-0.86-1.863-1.687-2.467c-0.825-0.603-1.854-0.903-3.088-0.903c-1.872,0-3.36,0.591-4.465,1.779
			c-1.104,1.186-1.655,2.945-1.655,5.28c0,2.519,0.559,4.406,1.678,5.663c1.119,1.261,2.584,1.889,4.398,1.889
			c0.896,0,1.797-0.174,2.698-0.528c0.901-0.352,1.677-0.777,2.322-1.281v-2.688H914.842z"/>
	</g>
	<path id="&#x304B;&#x3089;&#x3060;_1_" fill="#FFFFFF" stroke="#FFFFFF" d="M848.375,898.625h34.5c0,0,5.375-0.875,11.375-5.875
		S900.5,879,900.5,879s9.625-3.875,13.5-6.75s9.375-14.125,3.375-16.25s-7.875,3.5-10.5,7.125s-8.125,7-8.125,7
		s-7.125-14.375-13-22.5S867.875,836.25,867.5,834.5s2.042-2.208,1.542-4.083s-1.792-1.292-4.792-5.292s-1.5-8.875-1.5-8.875
		s2.25,6.125,3.625,7.875S871,831,876,829s2.375-7.5,2.375-7.5S873,808.875,869.5,808.125s-7.375,0.375-7.375,0.375
		s-9.448-5.976-19.875-2.5c-11.25,3.75-9.375,9.25-9.375,9.25l-2.25,0.75c0,0-5.125,2.625-6.625,12.875s1.25,10.625,4.25,11.25
		s6.667-3,6.75-4s-0.75-1.209-1.25-2.625s0-2.875,0-2.875s4.75,9,6.375,8.25s3.5-3.625,9.5-5.625s13.75,0.5,13.75,0.5
		s-15.875,0.75-22,8s-6.5,17.375-6.5,17.375s-0.625,18.625-1.875,23.25s-2,6-3.625,8.25S826.25,892,824,894.75s0.5,4,0.5,4h13
		c0,0,2.875-1.375,5.375-5.625s2.375-10.25,2.375-10.25s0.167-5.626,2.125-9.875s10.375-4.5,10.375-4.5s-7.167,4.041-9,7.625
		s0,10.625,0,10.625l3.875,5.875c0,0-2.75-0.126-5.125,2.125S848.375,898.625,848.375,898.625z"/>
	
		<ellipse id="_x21__x30FB_" transform="matrix(0.8796 0.4757 -0.4757 0.8796 501.7271 -324.4082)" fill="#FFFFFF" stroke="#FFFFFF" cx="891.781" cy="829.033" rx="3.687" ry="3.438"/>
	<path id="_x21_" fill="#FFFFFF" stroke="#FFFFFF" d="M907.064,810.369c-1.863,3.699-9.668,13.104-11.521,12.102
		c-1.852-1.002,2.018-12.58,4.483-15.908c1.93-2.604,3.451-2.396,5.303-1.395S908.337,807.837,907.064,810.369z"/>
</g>
<g id="&#x30B3;&#x30DE;_xFF11_">
</g>
<g id="&#x30B3;&#x30DE;&#x9001;&#x308A;_xFF08__x25B2__xFF09_">
</g>
</svg>
