<?xml version="1.0" encoding="utf-8"?>
<!-- Generator: Adobe Illustrator 13.0.0, SVG Export Plug-In . SVG Version: 6.00 Build 14948)  -->
<!DOCTYPE svg PUBLIC "-//W3C//DTD SVG 1.1//EN" "http://www.w3.org/Graphics/SVG/1.1/DTD/svg11.dtd">
<svg version="1.1" id="レイヤー_1" xmlns="http://www.w3.org/2000/svg" xmlns:xlink="http://www.w3.org/1999/xlink" x="0px"
	 y="0px" width="1700.788px" height="1700.788px" viewBox="20.106 -24.394 1700.788 1700.788"
	 enable-background="new 20.106 -24.394 1700.788 1700.788" xml:space="preserve">
<g transform="translate(-248 -447)">
	
		<rect x="268.106" y="422.606" fill="#8A3CC4" stroke="#7030A0" stroke-width="9.1667" stroke-linejoin="round" stroke-miterlimit="10" width="1700.787" height="1700.787"/>
	<path fill="none" stroke="#FFFFFF" stroke-width="20.625" stroke-linejoin="round" stroke-miterlimit="10" d="M372.5,1505.5
		h1385.98"/>
	<g enable-background="new    ">
		<path fill="#FFFFFF" d="M675.3,1858.035c0,22.559-7.573,40.283-22.72,53.174s-36.31,19.336-63.486,19.336
			c-17.941,0-35.61-1.72-53.013-5.156v-42.861h4.512c14.824,5.479,27.337,8.218,37.544,8.218c9.99,0,18.233-1.369,24.734-4.109
			c6.498-2.738,11.332-7.17,14.502-13.293c3.167-6.123,4.753-19.336,4.753-39.639v-110.859h-54.141v-38.672H675.3V1858.035z"/>
		<path fill="#FFFFFF" d="M729.924,1927v-242.827h75.894c34.374,0,61.175,4.406,80.405,13.213
			c19.228,8.81,34.401,22.345,45.521,40.605c11.117,18.264,16.677,40.875,16.677,67.837c0,24.387-5.775,46.272-17.321,65.661
			c-11.549,19.392-26.99,33.491-46.326,42.298c-19.336,8.81-45.439,13.213-78.311,13.213H729.924z M783.098,1722.361v166.45h26.104
			c55.752,0,83.628-27.82,83.628-83.467c0-55.321-27.876-82.983-83.628-82.983H783.098z"/>
		<path fill="#FFFFFF" d="M990.637,1927v-242.827h75.894c34.374,0,61.174,4.406,80.405,13.213
			c19.229,8.81,34.402,22.345,45.521,40.605c11.117,18.264,16.676,40.875,16.676,67.837c0,24.387-5.775,46.272-17.32,65.661
			c-11.549,19.392-26.99,33.491-46.326,42.298c-19.336,8.81-45.44,13.213-78.311,13.213H990.637z M1043.811,1722.361v166.45h26.104
			c55.751,0,83.628-27.82,83.628-83.467c0-55.321-27.877-82.983-83.628-82.983H1043.811z"/>
		<path fill="#FFFFFF" d="M1455.021,1836.121c0,31.904-8.941,55.86-26.828,71.865c-17.885,16.008-43.426,24.009-76.619,24.009
			c-33.301,0-58.84-8.082-76.617-24.25c-17.781-16.167-26.668-40.042-26.668-71.624v-151.948h53.334v150.498
			c0,20.197,4.135,34.805,12.408,43.828c8.27,9.023,20.785,13.535,37.543,13.535c17.186,0,29.836-4.484,37.947-13.455
			c8.109-8.968,12.166-23.497,12.166-43.586v-150.82h53.334V1836.121z"/>
		<path fill="#FFFFFF" d="M1714.607,1912.015c-32.658,13.43-63.434,20.142-92.33,20.142c-40.178,0-71.57-11.118-94.182-33.354
			c-22.613-22.236-33.918-53.388-33.918-93.457c0-38.563,11.574-69.179,34.725-91.846c23.146-22.664,54.703-33.999,94.664-33.999
			c30.076,0,60.209,7.146,90.396,21.431v49.307h-5.641c-19.014-14.18-34.537-23.176-46.566-26.99
			c-12.033-3.812-23.635-5.72-34.805-5.72c-23.635,0-42.354,7.709-56.154,23.122c-13.805,15.416-20.707,36.658-20.707,63.729
			c0,29.435,7.115,51.859,21.352,67.273c14.232,15.415,34.885,23.122,61.955,23.122c10.418,0,20.141-1.342,29.164-4.028v-55.269
			h-54.301v-38.672h106.348V1912.015z"/>
	</g>
	<path fill="#FFFFFF" stroke="#FFFFFF" stroke-width="3.4375" stroke-linejoin="round" stroke-miterlimit="10" d="M1029.52,1505.46
		l-3.271-24.53c45.36-19.229,71.9-50.22,86.681-96.5l24.53,37.62c7.319,7.2,38.159,26.17,57.239,39.25
		c-4.899,14.72-15.689,29.44-14.72,44.16l171.72,3.271c4.91-11.99,12.17-20.461,14.721-35.98c1.899-11.08-3.271-17.45-4.9-26.17
		c3.78-33.061,12.271-56.7-9.82-85.05c-15.63-16.04-35.979-10.91-53.97-16.36c-6.82-37.13-20.71-57.79-31.07-86.68
		c6-21.271,23.761-37.82,17.99-63.79l-24.53-52.34c43.61,61.06,63.7,126.829,130.83,183.189c26.83,20.22,66.601,20.46,98.13,35.98
		c31.961,15.01,54.521,31.189,81.771,55.609c14.229,12.54,14.35,21.55,17.99,37.62c3.069,33.311,4.97,50.16-4.9,75.24
		c-18.05,12.99-19.63,28.35-29.44,42.52c-7.399,22.53-5.399,43.881,13.08,60.521c40.891,1.86,81.771-0.979,122.66-26.17
		c15.32-17.74,18.88-34.29,21.26-63.79c-5.109-40.52-20.8-64.561-29.439-114.49c-9.27-49.609-5.59-89.82-27.8-148.84
		c-6.69-8.35-29.84-15.52-58.88-17.99c-40.91-54.29-46.53-127.41-76.86-194.64c-20.75-52.51-55.61-100.315-83.41-150.474
		c-30.64-38.02-69.52-59.57-109.569-75.237c10.35-9.813,21.89-7.863,31.069-29.441c16.9-58.881,20.72-96.5,6.54-181.551
		c-32.16-50.704-74.14-73.601-130.83-93.229c-26.17-8.723-59.6-18.107-73.6-1.636c-22.891,49.068-3.271,60.518,9.81,93.229
		c17.99,23.444,42.53,40.345,53.97,70.331c3.82,35.983,6.061,62.153-3.27,93.229c1.25,2.684-2.18-9.268-24.53-6.542
		c-23.58-5.308-66.51,10.359-109.569,22.898c-120.48,55.065-185.353,104.909-278.027,175.009
		c-80.365,65.084-174.846,150.154-209.336,209.354c-24.674,40.289-41.115,93.52-45.792,145.569
		c-10.53,88.521-15.179,122.931-8.064,165.57L1029.52,1505.46z"/>
</g>
</svg>
